# xmcd
#
# Track frame offsets:
#	150
#	18360
#	36116
#	52212
#	69843
#	79538
#	92168
#	108176
#
# Disc length: 1583 seconds
#
# Revision: 1
# Processed by: cddbd v1.5.2PL0 Copyright (c) Steve Scherf et al.
# Submitted via: audiograbber 1.83.01
#
DISCID=5a062d08
DTITLE=Hillcrest - Hillcrest 51
DYEAR=2000
DGENRE=Country
TTITLE0=Daddy, I Wan´t To See The Trees - Gabe Gagnon
TTITLE1=Country Girl - Pamelody
TTITLE2=Sweet Summer Rain - Brian Dolph
TTITLE3=Wannabe - Heather Smith
TTITLE4=The Migthy Power - Dale Mckay
TTITLE5=Tables And Chairs - Leo Mcclatchy
TTITLE6=Kiss And Tell - Tamara Mowat
TTITLE7=Where Have You Been All My Life - Eldon Weasechild
EXTD=
EXTT0=
EXTT1=
EXTT2=
EXTT3=
EXTT4=
EXTT5=
EXTT6=
EXTT7=
PLAYORDER=
